<svg id="Ebene_2" data-name="Ebene 2" xmlns="http://www.w3.org/2000/svg" viewBox="0 0 101.5 155.2"><defs><style>.cls-1{fill:#fff;}</style></defs><title>Zeichenfläche 1aaa</title><path class="cls-1" d="M14.16,87.56a18.18,18.18,0,0,1-5-2,52,52,0,0,0,49.48,65.81H60a25.28,25.28,0,1,0-.64-50.56A28.2,28.2,0,0,1,32.52,81.3,18,18,0,0,1,14.16,87.56Z"/><path class="cls-1" d="M81.51,108.78A31.73,31.73,0,0,0,96.64,89a2,2,0,0,1,.09-.35,2.32,2.32,0,0,1,.1-.42,15.14,15.14,0,0,0-29.5-6.79A18,18,0,0,1,47.75,95.13a25.2,25.2,0,0,0,11.6,2.81A28.21,28.21,0,0,1,81.51,108.78Z"/><path class="cls-1" d="M86.29,67.53a17.93,17.93,0,0,1,5,2A52,52,0,0,0,41.81,3.72H40.49a25.28,25.28,0,0,0,.65,50.56h0A28.21,28.21,0,0,1,67.94,73.8,18,18,0,0,1,86.29,67.53Z"/><path class="cls-1" d="M18.94,46.31A31.82,31.82,0,0,0,3.79,66.06a1,1,0,0,1-.09.34l-.1.43a15.16,15.16,0,0,0,29.55,6.79h0A18.08,18.08,0,0,1,52.73,60,25.21,25.21,0,0,0,41.14,57.2,28.23,28.23,0,0,1,18.94,46.31Z"/><path class="cls-1" d="M59.14,68.64a12.6,12.6,0,1,0,0,17.82,12.59,12.59,0,0,0,0-17.82Zm-8.34.93a2.27,2.27,0,1,1,0-3.21h0a2.26,2.26,0,0,1,0,3.2h0Zm7.12,4.17a3.33,3.33,0,1,1,0-4.71,3.32,3.32,0,0,1,0,4.71Z"/></svg>